<svg width="54" height="11" viewBox="0 0 54 11" fill="none" xmlns="http://www.w3.org/2000/svg">
<g id="Filter: All">
<path id="Vector" d="M52.1874 10C51.7021 10 51.3381 9.87867 51.0954 9.636C50.8614 9.38467 50.7444 9.038 50.7444 8.596V0.380005H52.1614V8.84301H53.0974V10H52.1874Z" fill="#212529"/>
<path id="Vector_2" d="M48.5565 10C48.0712 10 47.7072 9.87867 47.4645 9.636C47.2305 9.38467 47.1135 9.038 47.1135 8.596V0.380005H48.5305V8.84301H49.4665V10H48.5565Z" fill="#212529"/>
<path id="Vector_3" d="M44.2781 10L43.4591 7.54303H40.0661L39.2731 10H37.7781L40.8721 0.926025H42.7181L45.8121 10H44.2781ZM41.7951 2.27802H41.7301L40.4171 6.28203H43.0951L41.7951 2.27802Z" fill="#212529"/>
<path id="Vector_4" d="M32.4104 10.156C32.0898 10.156 31.8514 10.0737 31.6954 9.90898C31.5394 9.73565 31.4614 9.52332 31.4614 9.27198V9.07698C31.4614 8.82565 31.5394 8.61765 31.6954 8.45298C31.8514 8.27965 32.0898 8.19298 32.4104 8.19298C32.7311 8.19298 32.9694 8.27965 33.1254 8.45298C33.2814 8.61765 33.3594 8.82565 33.3594 9.07698V9.27198C33.3594 9.52332 33.2814 9.73565 33.1254 9.90898C32.9694 10.0737 32.7311 10.156 32.4104 10.156ZM32.4104 5.04698C32.0898 5.04698 31.8514 4.96465 31.6954 4.79998C31.5394 4.62665 31.4614 4.41432 31.4614 4.16298V3.96798C31.4614 3.71665 31.5394 3.50865 31.6954 3.34398C31.8514 3.17065 32.0898 3.08398 32.4104 3.08398C32.7311 3.08398 32.9694 3.17065 33.1254 3.34398C33.2814 3.50865 33.3594 3.71665 33.3594 3.96798V4.16298C33.3594 4.41432 33.2814 4.62665 33.1254 4.79998C32.9694 4.96465 32.7311 5.04698 32.4104 5.04698Z" fill="#212529"/>
<path id="Vector_5" d="M26.4329 9.99999V3.23999H27.8499V4.53999H27.9149C28.0102 4.19332 28.2095 3.88999 28.5129 3.62999C28.8162 3.36999 29.2365 3.23999 29.7739 3.23999H30.1509V4.60499H29.5919C29.0285 4.60499 28.5952 4.69599 28.2919 4.87799C27.9972 5.05999 27.8499 5.32866 27.8499 5.68399V9.99999H26.4329Z" fill="#212529"/>
<path id="Vector_6" d="M21.8612 10.156C21.3758 10.156 20.9425 10.0737 20.5611 9.90898C20.1798 9.74432 19.8548 9.51032 19.5862 9.20698C19.3175 8.89498 19.1095 8.52232 18.9622 8.08898C18.8235 7.64698 18.7542 7.15732 18.7542 6.61998C18.7542 6.08265 18.8235 5.59732 18.9622 5.16398C19.1095 4.72198 19.3175 4.34932 19.5862 4.04598C19.8548 3.73398 20.1798 3.49565 20.5611 3.33098C20.9425 3.16632 21.3758 3.08398 21.8612 3.08398C22.3552 3.08398 22.7885 3.17065 23.1611 3.34398C23.5425 3.51732 23.8588 3.75998 24.1102 4.07198C24.3615 4.37532 24.5478 4.73065 24.6692 5.13798C24.7992 5.54532 24.8642 5.98298 24.8642 6.45098V6.98398H20.2232V7.20498C20.2232 7.72498 20.3748 8.15398 20.6782 8.49198C20.9902 8.82132 21.4322 8.98598 22.0042 8.98598C22.4202 8.98598 22.7712 8.89498 23.0571 8.71298C23.3431 8.53098 23.5858 8.28398 23.7852 7.97198L24.6172 8.79098C24.3658 9.20698 24.0018 9.54065 23.5252 9.79198C23.0485 10.0347 22.4938 10.156 21.8612 10.156ZM21.8612 4.18898C21.6185 4.18898 21.3932 4.23232 21.1852 4.31898C20.9858 4.40565 20.8125 4.52698 20.6651 4.68298C20.5265 4.83898 20.4182 5.02532 20.3402 5.24198C20.2622 5.45865 20.2232 5.69698 20.2232 5.95698V6.04798H23.3692V5.91798C23.3692 5.39798 23.2348 4.98198 22.9662 4.66998C22.6975 4.34932 22.3292 4.18898 21.8612 4.18898Z" fill="#212529"/>
<path id="Vector_7" d="M16.3839 10C15.8899 10 15.5173 9.87438 15.2659 9.62304C15.0146 9.36304 14.8889 8.99904 14.8889 8.53104V4.39704H13.8359V3.24004H14.4079C14.6419 3.24004 14.8023 3.18804 14.8889 3.08404C14.9843 2.98004 15.0319 2.81104 15.0319 2.57704V1.39404H16.3059V3.24004H17.7229V4.39704H16.3059V8.84304H17.6189V10H16.3839Z" fill="#212529"/>
<path id="Vector_8" d="M12.3114 10C11.8261 10 11.4621 9.87867 11.2194 9.636C10.9854 9.38467 10.8684 9.038 10.8684 8.596V0.380005H12.2854V8.84301H13.2214V10H12.3114Z" fill="#212529"/>
<path id="Vector_9" d="M8.1431 2.031C7.84843 2.031 7.63176 1.96167 7.4931 1.823C7.3631 1.68434 7.2981 1.50667 7.2981 1.29V1.069C7.2981 0.852336 7.3631 0.674669 7.4931 0.536002C7.63176 0.397336 7.84843 0.328003 8.1431 0.328003C8.43776 0.328003 8.6501 0.397336 8.7801 0.536002C8.9101 0.674669 8.9751 0.852336 8.9751 1.069V1.29C8.9751 1.50667 8.9101 1.68434 8.7801 1.823C8.6501 1.96167 8.43776 2.031 8.1431 2.031ZM7.4281 3.24H8.8451V10H7.4281V3.24Z" fill="#212529"/>
<path id="Vector_10" d="M0.11792 10V0.926025H5.78592V2.22602H1.58692V4.74803H5.31792V6.04803H1.58692V10H0.11792Z" fill="#212529"/>
</g>
</svg>
